# xmcd CD database file
#
# Track frame offsets:
#	150
#	14786
#	32505
#	42958
#	56320
#	66679
#	79337
#	88563
#	101286
#	117284
#	127265
#	143872
#
# Disc length: 2130 seconds
#
# Revision: 0
# Processed by: cddbd v1.5.1PL2 Copyright (c) Steve Scherf et al.
# Submitted via: CDex 1.51
#
DISCID=a808500c
DTITLE=Rusty Evans and Ring of Fire - Ring of Fire
DYEAR=2000
DGENRE=Country
TTITLE0=Ring of Fire
TTITLE1=Thoughts Have Wings
TTITLE2=Chaos Lady
TTITLE3=I Walk the Line
TTITLE4=Sea of Heartbreak
TTITLE5=Big River
TTITLE6=Get Rhythm
TTITLE7=Folsom Prison Blues
TTITLE8=Pastures of Plenty
TTITLE9=Leavin' Tonight
TTITLE10=No Expectations
TTITLE11=Danny's Boogie
EXTD=YEAR: 2000
EXTT0=
EXTT1=
EXTT2=
EXTT3=
EXTT4=
EXTT5=
EXTT6=
EXTT7=
EXTT8=
EXTT9=
EXTT10=
EXTT11=
PLAYORDER=
